<svg width="145" height="84" viewBox="0 0 145 84" fill="none" xmlns="http://www.w3.org/2000/svg">
<path d="M144.671 42.0689C144.7 40.9955 144.72 39.9057 144.72 38.7663C144.72 37.8866 144.372 37.043 143.753 36.4209C143.134 35.7989 142.294 35.4494 141.418 35.4494C140.542 35.4494 139.702 35.7989 139.083 36.4209C138.464 37.043 138.116 37.8866 138.116 38.7663C138.116 41.2432 138.038 43.5674 137.886 45.7842C137.388 50.4118 135.905 54.5152 133.85 56.6082C133.373 57.1379 132.787 57.5577 132.134 57.8388C131.48 58.12 130.773 58.2558 130.062 58.237C129.352 58.2182 128.653 58.0451 128.015 57.7298C127.377 57.4144 126.814 56.9642 126.366 56.41C123.21 52.8516 122.256 45.037 122.918 39.1544C123.018 38.2785 122.768 37.3985 122.222 36.7079C121.676 36.0174 120.88 35.5728 120.008 35.4721C119.136 35.3714 118.26 35.6227 117.572 36.1708C116.885 36.7189 116.442 37.5189 116.342 38.3948C116.003 41.4387 116.003 44.5112 116.342 47.5552C116.313 47.8235 116.285 48.0918 116.248 48.3808C114.822 59.9107 109.91 62.3298 106.043 62.3298C104.813 62.2938 103.598 62.0582 102.443 61.6321L102.632 61.4216C106.331 57.2191 108.55 51.7782 108.55 46.8616C108.55 43.7036 107.634 40.9708 105.899 38.9604C104.527 37.371 101.97 35.4762 97.5934 35.4762C93.9521 35.4762 90.8164 37.2472 88.7574 40.4589C85.8066 45.0576 85.5271 51.898 88.0546 57.4833C88.7314 58.9554 89.6174 60.3209 90.6849 61.5372C89.2928 62.0389 87.8279 62.3067 86.3491 62.3298C81.7133 62.3298 75.0185 56.6082 71.1676 52.4759C75.3999 49.1031 79.1261 45.135 82.2311 40.6942C82.7352 39.9743 82.934 39.0828 82.7837 38.2157C82.6334 37.3486 82.1464 36.577 81.4297 36.0707C80.713 35.5643 79.8255 35.3646 78.9622 35.5156C78.099 35.6666 77.3309 36.1558 76.8268 36.8757C73.6981 41.3774 69.8322 45.3136 65.3934 48.517L65.418 38.7952C65.4213 38.3595 65.3387 37.9274 65.1749 37.5238C65.0111 37.1203 64.7695 36.7533 64.4638 36.444C64.1582 36.1347 63.7947 35.8892 63.3941 35.7217C62.9936 35.5542 62.5641 35.468 62.1302 35.468C61.2582 35.468 60.422 35.8159 59.8054 36.4352C59.1888 37.0546 58.8424 37.8946 58.8424 38.7705L58.7931 58.214L58.604 58.0571L58.1725 57.7186L57.4451 57.1531L56.9971 56.8187L56.2204 56.249L55.83 55.9683L54.8395 55.283L54.6422 55.1509C54.223 54.8757 53.7997 54.6005 53.3723 54.3253L53.2942 54.2758C52.9038 54.0281 52.5134 53.7886 52.1188 53.5533L51.8353 53.3841L50.7832 52.7979L50.4626 52.6162C50.1174 52.4264 49.768 52.2365 49.4187 52.0548L49.1434 51.9062C48.7324 51.6833 48.2885 51.4645 47.8529 51.2498L47.5364 51.1012L46.5953 50.6513L45.946 50.3623L45.2843 50.0692L44.6185 49.7761L43.8746 49.4747L43.4637 49.3096L43.2993 49.2477C43.0157 49.1362 42.7321 49.033 42.4486 48.9257C44.4005 46.4592 46.1475 43.8359 47.6721 41.0822C49.8496 37.2229 51.3771 33.0286 52.1928 28.6689C52.6107 26.3728 52.7364 24.0327 52.5668 21.7048C52.4704 20.5039 52.2863 19.3118 52.0161 18.1381C51.7301 16.9523 51.3466 15.7924 50.8695 14.6704C50.387 13.546 49.8081 12.4659 49.1393 11.4422C48.4934 10.4227 47.7678 9.45642 46.9693 8.55252C46.5583 8.11081 46.172 7.66497 45.7364 7.26454C45.3007 6.86411 44.8815 6.43891 44.4418 6.07151C43.5372 5.29023 42.5756 4.57819 41.565 3.94139C39.4987 2.62398 37.2191 1.67955 34.829 1.15077C32.4137 0.638233 29.9267 0.562743 27.4849 0.927851C25.119 1.28702 22.8204 2.00235 20.6668 3.04971C18.559 4.06715 16.594 5.35939 14.8227 6.89301C13.009 8.44297 11.4306 10.2509 10.1376 12.2596C9.44596 13.3464 8.87277 14.5048 8.42791 15.7148C7.91279 17.1034 7.64297 18.5717 7.63061 20.0535C7.63061 20.5913 7.73606 21.1238 7.94095 21.6206C8.14583 22.1175 8.44613 22.5689 8.8247 22.9492C9.20328 23.3295 9.65271 23.6311 10.1473 23.8369C10.642 24.0427 11.1721 24.1486 11.7075 24.1486C12.2429 24.1486 12.773 24.0427 13.2677 23.8369C13.7623 23.6311 14.2117 23.3295 14.5903 22.9492C14.9689 22.5689 15.2692 22.1175 15.4741 21.6206C15.6789 21.1238 15.7844 20.5913 15.7844 20.0535C15.8058 19.5361 15.9113 19.0258 16.0967 18.5426C16.3442 17.8886 16.6582 17.2619 17.0338 16.6726C17.8966 15.3447 18.9458 14.1489 20.149 13.1224C22.5539 10.9905 25.5026 9.57382 28.6644 9.03138C30.1424 8.80765 31.6483 8.85099 33.1112 9.15936C34.5843 9.48524 35.9891 10.0679 37.262 10.8808C38.6009 11.7444 39.8163 12.7874 40.8745 13.981C41.3904 14.5645 41.8591 15.1884 42.2759 15.8469C42.6904 16.492 43.0493 17.1715 43.3486 17.878C43.9469 19.3103 44.3146 20.8292 44.4377 22.3776C44.5587 24.0141 44.4717 25.6593 44.1788 27.2736C43.514 30.7368 42.2851 34.0661 40.5416 37.1275C38.7519 40.3395 36.6246 43.3496 34.1961 46.1062L33.8386 46.519L33.0166 46.3662L32.3878 46.263C32.1248 46.2176 31.8577 46.1764 31.5947 46.1392L31.1837 46.0732L30.896 46.0401L30.1398 45.9452L29.4411 45.8667C28.9932 45.8172 28.5452 45.7801 28.0931 45.7429H28.052L27.5959 45.714C27.2712 45.6934 26.9424 45.6727 26.6136 45.6603H25.9396H25.1177H24.4807C24.1395 45.6603 23.7984 45.6603 23.4573 45.6603H23.0463C22.023 45.7016 20.9915 45.7759 19.9681 45.8956L19.6928 45.9287C19.2818 45.9741 18.8914 46.0319 18.4886 46.0897L18.2544 46.1227L17.9996 46.1681L17.5886 46.2383C17.3872 46.2713 17.1776 46.3167 16.9886 46.3539L16.4748 46.4529C16.0392 46.5438 15.6077 46.6428 15.172 46.7502L14.9953 46.7914C14.4912 46.9208 13.9898 47.0584 13.4911 47.2043L13.1459 47.3116C12.7678 47.4272 12.3938 47.551 12.0198 47.6831L11.8061 47.7533L11.5308 47.8606C11.202 47.9804 10.8732 48.1083 10.5485 48.2446L10.0348 48.451C9.70193 48.5954 9.36904 48.7482 9.04026 48.9009L8.67449 49.0661L8.58819 49.1115C8.17721 49.322 7.72924 49.5243 7.30183 49.7761H7.21963L7.13333 49.8215L6.75112 50.0403L6.67714 50.0857L6.59495 50.1311L6.38946 50.2508L6.34425 50.2797L6.00725 50.4779C5.58788 50.7422 5.19066 51.0404 4.81953 51.3696C2.59919 53.1831 1.16453 55.7901 0.816617 58.6433C0.706578 59.6264 0.748165 60.6205 0.93991 61.5908C0.93991 61.628 0.93991 61.661 0.93991 61.6982C0.968678 61.8344 1.00156 61.9747 1.03854 62.111C1.03854 62.1399 1.03854 62.1688 1.03854 62.1977C1.04091 62.221 1.04091 62.2445 1.03854 62.2678C1.07553 62.3999 1.11252 62.5279 1.15773 62.66C1.17828 62.7261 1.19882 62.7921 1.22348 62.8582C1.24814 62.9242 1.30568 63.0976 1.355 63.2173C1.42486 63.3989 1.50295 63.5765 1.58514 63.754L1.61391 63.8076C1.68378 63.948 1.75364 64.0883 1.82762 64.2204C1.82762 64.2535 1.86461 64.2824 1.88105 64.3113L1.95502 64.4351C2.03722 64.5796 2.12352 64.7158 2.20983 64.8479L2.30435 64.9883L2.57149 65.3598L2.67423 65.496C2.7893 65.6405 2.90849 65.785 3.03178 65.9089C3.0391 65.9217 3.04888 65.9329 3.06055 65.9419C3.19206 66.0864 3.32768 66.2267 3.47153 66.3547L3.59482 66.4703C3.69893 66.5694 3.80168 66.6643 3.90305 66.7551L4.051 66.8831C4.14964 66.9657 4.25238 67.0523 4.35513 67.1308L4.50719 67.2464C4.61815 67.3331 4.73322 67.4156 4.8483 67.4941L4.94693 67.5642C5.10721 67.6716 5.26749 67.7706 5.42777 67.8656L5.4812 67.8986L5.89218 68.1339L6.03191 68.2082L6.21274 68.299L6.29905 68.3362C6.55796 68.46 6.82099 68.5715 7.08812 68.6747H7.10867C7.38265 68.7793 7.65664 68.8701 7.93062 68.9472L8.02926 68.9761C8.29639 69.0504 8.56764 69.1164 8.85121 69.1701L9.04026 69.2031L9.29096 69.2485C9.47179 69.2815 9.65672 69.3022 9.84166 69.3228H9.86632C10.1376 69.3517 10.4129 69.3682 10.6883 69.3765H10.8979C11.1362 69.3765 11.3787 69.3765 11.6171 69.3765H11.6911H11.8637C12.1103 69.3765 12.3568 69.3311 12.6034 69.298H12.7308H12.7843C12.9774 69.265 13.1706 69.232 13.3596 69.1866L13.6227 69.1288H13.6843H13.7131H13.7418L13.8364 69.104C15.9898 68.5579 18.0901 67.8188 20.112 66.8955C24.006 65.1025 27.6754 62.8536 31.044 60.1955C33.1379 58.5646 35.132 56.8084 37.0154 54.9363L37.11 54.961C37.3566 55.0271 37.6031 55.0973 37.8456 55.1716L38.3265 55.3119C38.7004 55.4275 39.0744 55.5431 39.4484 55.6669L39.7156 55.7578C40.0485 55.8692 40.3731 55.9848 40.7019 56.1045L41.0595 56.2366C41.3718 56.3522 41.6841 56.4678 41.9965 56.5916L42.2266 56.6825C42.6006 56.8311 42.9746 56.9838 43.3486 57.1448L43.4185 57.1737C43.924 57.3884 44.4254 57.6154 44.9226 57.8466C45.4199 58.0778 45.9994 58.3626 46.5337 58.6351L46.8542 58.7961C47.457 59.1098 48.0543 59.4332 48.6461 59.7662L48.8269 59.8694C49.4379 60.2217 50.0448 60.5849 50.6475 60.9592C51.2339 61.3307 51.8161 61.7147 52.3942 62.111C52.4846 62.1688 52.5709 62.2307 52.6572 62.2926C53.2216 62.6807 53.7696 63.0783 54.3011 63.4856L54.4696 63.6136C54.9628 63.9879 55.4491 64.3718 55.9286 64.7654L56.2163 65.0048C56.7136 65.4176 57.2026 65.8304 57.6793 66.268L58.0164 66.5735C58.5095 67.0248 58.9931 67.483 59.4671 67.9482L59.4959 67.977C59.9692 68.433 60.5675 68.7363 61.2138 68.8481C61.4468 68.9027 61.6854 68.9304 61.9247 68.9306C62.7967 68.9306 63.633 68.5827 64.2496 67.9634C64.8662 67.344 65.2126 66.504 65.2126 65.6281L65.2372 55.8445C68.8661 59.9437 77.7884 68.9389 86.2299 68.9389C89.8262 68.9412 93.3633 68.0189 96.5043 66.2597C99.6401 67.9894 103.039 68.9389 105.903 68.9389C112.212 68.9389 117.082 65.4713 119.992 59.1511C120.382 59.7298 120.81 60.2815 121.274 60.8023C122.361 62.0752 123.711 63.0958 125.229 63.7936C126.748 64.4913 128.399 64.8497 130.069 64.8438C131.182 64.8461 132.29 64.6833 133.357 64.3608C132.918 65.2262 132.435 66.0681 131.91 66.8831C127.562 73.5748 120.719 76.8278 110.987 76.8278C110.111 76.8278 109.271 77.1772 108.652 77.7993C108.033 78.4213 107.685 79.265 107.685 80.1447C107.685 81.0244 108.033 81.8681 108.652 82.4902C109.271 83.1122 110.111 83.4617 110.987 83.4617C122.955 83.4617 131.857 79.1024 137.442 70.5076C141.35 64.4888 143.606 56.4719 144.33 46.1516C144.518 44.798 144.632 43.435 144.671 42.0689ZM16.857 59.4277C15.2767 60.1541 13.6344 60.7358 11.95 61.1656L11.7979 61.2028C11.6628 61.2355 11.5254 61.2575 11.3869 61.2688H11.2883C11.142 61.2812 10.9949 61.2812 10.8486 61.2688H10.7581C10.607 61.2507 10.4573 61.2217 10.3102 61.1821H10.2773C10.136 61.1457 9.99837 61.0959 9.86632 61.0335L9.78002 60.9964L9.70604 60.9592C9.65475 60.9323 9.60532 60.902 9.55809 60.8684C9.52919 60.8529 9.50169 60.835 9.4759 60.8147C9.43174 60.7854 9.38921 60.7537 9.34849 60.7198L9.30329 60.6826C9.21086 60.6017 9.12811 60.5103 9.0567 60.4102C9.05788 60.402 9.05788 60.3936 9.0567 60.3854L9.00738 60.2987V60.2657C9.00738 60.2409 8.98683 60.2162 8.97861 60.1831V60.1584C8.93508 59.9745 8.92533 59.7843 8.94985 59.5969C9.07908 58.8659 9.46026 58.2039 10.0266 57.7269C10.1704 57.6113 10.3266 57.5164 10.4787 57.3966C10.5198 57.3677 10.5362 57.3471 10.5896 57.3141L10.6266 57.2893L10.8239 57.1696L11.2349 56.9302C11.5554 56.7485 11.876 56.5669 12.2048 56.3976L12.5336 56.2325C12.776 56.1128 13.0185 55.9931 13.2692 55.8816L13.6432 55.7165C13.887 55.6091 14.1336 55.5059 14.383 55.4069L14.7405 55.2665C15.0282 55.1551 15.32 55.0518 15.6118 54.9528L15.8543 54.8702C16.2365 54.7422 16.6228 54.6225 17.0173 54.5152L17.1324 54.4822C17.4735 54.3913 17.8187 54.3047 18.1639 54.2221L18.5749 54.1313L19.3969 53.962L19.775 53.8918C20.0996 53.8341 20.4284 53.7845 20.7531 53.735L20.9586 53.7061C21.7805 53.5905 22.623 53.5079 23.4614 53.4543L23.8025 53.4336L24.6615 53.3965H25.1711H26.6465L26.1903 53.7639C23.3153 56.0147 20.1852 57.9159 16.8653 59.4277H16.857ZM96.5619 58.1067C95.53 57.1505 94.6925 56.0023 94.096 54.7257C92.5096 51.2251 92.6124 46.7295 94.3385 44.038C95.1604 42.7335 96.2495 42.1019 97.6263 42.1019C99.1428 42.1019 100.257 42.5147 100.939 43.2949C101.798 44.2898 101.979 45.7718 101.979 46.8492C101.962 51.5594 99.6647 55.4193 96.5701 58.1067H96.5619Z" fill="white"/>
</svg>
