<svg width="207" height="28" viewBox="0 0 207 28" fill="none" xmlns="http://www.w3.org/2000/svg">
<path d="M12.5585 27V5.4668H20.2577V1.63477H0.32412V5.4668H8.02334V27H12.5585ZM47.2753 7.78711H42.9511L39.6288 22.623H39.5409L35.7265 7.78711H31.5253L27.7108 22.623H27.6229L24.3183 7.78711H19.9413L25.162 27H29.7147L33.5292 12.8848H33.6347L37.4667 27H42.0546L47.2753 7.78711ZM57.5937 10.9336C60.1952 10.9336 61.9882 12.7617 62.0761 15.5391H52.9706C53.164 12.7969 55.0272 10.9336 57.5937 10.9336ZM62.0937 21.2871C61.5839 22.8691 59.9491 23.8711 57.8397 23.8711C54.9042 23.8711 52.9354 21.8145 52.9354 18.7207V18.457H66.3827V17.0156C66.3827 11.1973 62.9726 7.52344 57.5937 7.52344C52.0917 7.52344 48.5585 11.4258 48.5585 17.4727C48.5585 23.5195 52.0741 27.2812 57.7519 27.2812C62.2343 27.2812 65.6444 24.8379 66.2069 21.2871H62.0937ZM69.4765 27H73.8534V0.457031H69.4765V27ZM94.5253 7.78711H89.955L85.4198 22.8867H85.3319L80.7792 7.78711H76.121L82.9413 27H87.7401L94.5253 7.78711ZM104.351 10.9336C106.953 10.9336 108.746 12.7617 108.834 15.5391H99.7284C99.9218 12.7969 101.785 10.9336 104.351 10.9336ZM108.851 21.2871C108.342 22.8691 106.707 23.8711 104.598 23.8711C101.662 23.8711 99.6933 21.8145 99.6933 18.7207V18.457H113.141V17.0156C113.141 11.1973 109.73 7.52344 104.351 7.52344C98.8495 7.52344 95.3163 11.4258 95.3163 17.4727C95.3163 23.5195 98.8319 27.2812 104.51 27.2812C108.992 27.2812 112.402 24.8379 112.965 21.2871H108.851ZM115.848 27H135.131V23.168H121.402V23.0449L134.797 4.6582V1.63477H116.217V5.4668H129.312V5.58984L115.848 23.9766V27ZM146.504 10.9336C149.105 10.9336 150.898 12.7617 150.986 15.5391H141.881C142.074 12.7969 143.937 10.9336 146.504 10.9336ZM151.004 21.2871C150.494 22.8691 148.859 23.8711 146.75 23.8711C143.814 23.8711 141.846 21.8145 141.846 18.7207V18.457H155.293V17.0156C155.293 11.1973 151.883 7.52344 146.504 7.52344C141.002 7.52344 137.469 11.4258 137.469 17.4727C137.469 23.5195 140.984 27.2812 146.662 27.2812C151.144 27.2812 154.555 24.8379 155.117 21.2871H151.004ZM158.246 27H162.623V15.8555C162.623 13.1484 164.17 11.4785 166.736 11.4785C167.334 11.4785 168.125 11.584 168.476 11.7422V7.75195C168.16 7.64648 167.598 7.57617 167.141 7.57617C164.873 7.57617 163.15 8.87695 162.535 11.127H162.447V7.78711H158.246V27ZM178.637 27.2812C184.332 27.2812 187.9 23.5195 187.9 17.3848C187.9 11.3027 184.297 7.52344 178.637 7.52344C173.012 7.52344 169.391 11.3203 169.391 17.3848C169.391 23.5195 172.976 27.2812 178.637 27.2812ZM178.637 23.7832C175.648 23.7832 173.838 21.4277 173.838 17.4023C173.838 13.3945 175.648 11.0215 178.637 11.0215C181.642 11.0215 183.453 13.377 183.453 17.4023C183.453 21.4277 181.66 23.7832 178.637 23.7832ZM190.502 13.3418C190.502 16.0664 192.295 17.877 195.81 18.7031L199.291 19.5469C201.207 20.0039 201.91 20.6016 201.91 21.7266C201.91 23.1504 200.521 24.0469 198.289 24.0469C196.004 24.0469 194.58 23.0801 194.316 21.3398H190.01C190.291 24.9082 193.402 27.2812 198.113 27.2812C202.93 27.2812 206.269 24.873 206.269 21.3047C206.269 18.4746 204.793 17.0156 200.926 16.1191L197.551 15.3457C195.652 14.9062 194.756 14.168 194.756 13.0957C194.756 11.6895 196.092 10.7578 198.131 10.7578C200.223 10.7578 201.611 11.7773 201.752 13.3945H205.83C205.742 9.91406 202.648 7.52344 198.219 7.52344C193.596 7.52344 190.502 9.86133 190.502 13.3418Z" fill="white"/>
</svg>
