<svg width="64" height="64" viewBox="0 0 64 64" fill="none" xmlns="http://www.w3.org/2000/svg">
<path d="M54.0036 25.5099C53.9872 23.6596 50.5647 22.8198 41.7051 22.8198C20.9175 22.8198 15.6436 21.9328 10 16C12.3743 19.5623 13.6733 26.2439 35.6452 25.9114C58.5695 25.5586 44.5843 31.8163 40.5151 38.8862C47.8536 32.3433 53.9815 28.0306 54.0036 25.5367V25.5099ZM24.7925 44.5093C24.7916 46.2291 23.3754 47.6441 21.6535 47.6445C19.9144 47.6445 18.508 46.2397 18.508 44.5093C18.508 44.5085 18.508 44.5077 18.508 44.5069C18.508 42.7842 19.9267 41.3665 21.6519 41.3665C21.6527 41.3665 21.6527 41.3665 21.6535 41.3665C23.3869 41.3665 24.7925 42.7717 24.7925 44.5093ZM39.1079 44.5093C39.1071 46.2291 37.6909 47.6441 35.969 47.6445C34.2315 47.6445 32.8243 46.2397 32.8243 44.5093C32.8243 44.5085 32.8243 44.5077 32.8243 44.5069C32.8243 42.7842 34.2429 41.3665 35.9673 41.3665C35.9681 41.3665 35.9681 41.3665 35.969 41.3665C37.7024 41.3665 39.1079 42.7717 39.1079 44.5093Z" fill="url(#paint0_linear)"/>
<defs>
<linearGradient id="paint0_linear" x1="-48.384" y1="47.4587" x2="-48.384" y2="16.0001" gradientUnits="userSpaceOnUse">
<stop stop-color="#04B6F0"/>
<stop offset="1" stop-color="#3ECAF0"/>
</linearGradient>
</defs>
</svg>
