<svg width="64" height="64" viewBox="0 0 64 64" fill="none" xmlns="http://www.w3.org/2000/svg">
<path fill-rule="evenodd" clip-rule="evenodd" d="M48.4307 24.136C47.9033 23.9564 47.3568 23.7865 46.7941 23.6258C46.8866 23.2523 46.9715 22.8837 47.047 22.5214C48.2859 16.5716 47.4758 11.7785 44.7099 10.2004C42.0576 8.68717 37.7201 10.2649 33.3395 14.0368C32.9182 14.3995 32.4958 14.7835 32.0735 15.1859C31.7922 14.9197 31.5113 14.6623 31.2311 14.4162C26.64 10.3831 22.0382 8.6835 19.2749 10.2662C16.6252 11.7838 15.8405 16.2898 16.9557 21.9284C17.0634 22.473 17.1893 23.0292 17.3316 23.5947C16.6803 23.7776 16.0516 23.9726 15.45 24.1801C10.0674 26.0367 6.62988 28.9465 6.62988 31.9648C6.62988 35.0821 10.3201 38.2087 15.9264 40.1046C16.3689 40.2542 16.8279 40.3957 17.301 40.53C17.1475 41.1416 17.0139 41.7409 16.9018 42.3255C15.8385 47.8662 16.6688 52.2658 19.3115 53.7738C22.0411 55.3311 26.6221 53.7304 31.0829 49.8726C31.4354 49.5676 31.7893 49.2442 32.1437 48.9053C32.6032 49.343 33.0619 49.7573 33.5182 50.1458C37.8389 53.8245 42.1064 55.3099 44.7466 53.7977C47.4735 52.2359 48.3597 47.5097 47.2092 41.7595C47.1213 41.3204 47.019 40.8717 46.9042 40.4151C47.2259 40.321 47.5417 40.2239 47.8497 40.1229C53.678 38.2123 57.4701 35.1237 57.4701 31.9648C57.4701 28.9356 53.9217 26.0062 48.4307 24.136ZM47.1665 38.0833C46.8885 38.1743 46.6033 38.2623 46.3126 38.3477C45.6692 36.3324 44.8008 34.1894 43.7381 31.9753C44.7522 29.814 45.587 27.6984 46.2124 25.6962C46.7325 25.8451 47.2373 26.0021 47.7237 26.1679C52.4283 27.7702 55.2981 30.1394 55.2981 31.9649C55.2981 33.9093 52.1988 36.4335 47.1665 38.0833ZM45.0784 42.1769C45.5872 44.7196 45.6599 47.0184 45.3229 48.8155C45.0201 50.4303 44.4111 51.507 43.6582 51.9382C42.056 52.8557 38.6297 51.663 34.9345 48.517C34.5109 48.1564 34.0842 47.7713 33.6562 47.3637C35.0887 45.8137 36.5204 44.0116 37.9177 42.0103C40.3755 41.7945 42.6975 41.4418 44.8032 40.9602C44.9069 41.3741 44.9991 41.78 45.0784 42.1769ZM23.9624 51.7796C22.397 52.3266 21.1502 52.3422 20.3966 51.9123C18.7929 50.9972 18.1262 47.4647 19.0356 42.7263C19.1398 42.1836 19.2638 41.6262 19.4067 41.0564C21.4893 41.512 23.7943 41.8399 26.2579 42.0375C27.6647 43.9959 29.1378 45.7959 30.6222 47.3721C30.2979 47.6819 29.9748 47.9768 29.6536 48.2547C27.6811 49.9606 25.7044 51.1709 23.9624 51.7796ZM16.6287 38.0714C14.1497 37.2331 12.1025 36.1435 10.6991 34.9546C9.43819 33.8862 8.80156 32.8255 8.80156 31.9649C8.80156 30.1333 11.5616 27.7971 16.1648 26.2092C16.7233 26.0165 17.308 25.835 17.9148 25.6644C18.5509 27.7119 19.3855 29.8525 20.3926 32.0171C19.3725 34.2139 18.5261 36.3887 17.8836 38.4601C17.4511 38.3371 17.032 38.2076 16.6287 38.0714ZM19.087 21.5158C18.1316 16.6848 18.7661 13.0404 20.3629 12.1259C22.0638 11.1517 25.8248 12.5407 29.7889 16.0231C30.0422 16.2457 30.2966 16.4787 30.5517 16.7197C29.0746 18.2889 27.615 20.0755 26.2207 22.0223C23.8297 22.2416 21.5409 22.5938 19.4365 23.0654C19.3042 22.5389 19.187 22.0216 19.087 21.5158ZM41.0172 26.8734C40.5141 26.0137 39.9977 25.1743 39.4712 24.3579C41.0933 24.5607 42.6475 24.83 44.107 25.1596C43.6688 26.549 43.1227 28.0017 42.4798 29.4909C42.0186 28.6246 41.5308 27.7512 41.0172 26.8734ZM32.0741 18.2554C33.0759 19.3291 34.0791 20.528 35.0659 21.8287C34.0715 21.7823 33.0649 21.7581 32.0499 21.7581C31.0445 21.7581 30.0452 21.7817 29.057 21.8274C30.0448 20.5387 31.0567 19.3415 32.0741 18.2554ZM23.0738 26.8882C22.5713 27.7504 22.0925 28.619 21.6386 29.4893C21.0062 28.0053 20.4651 26.546 20.0231 25.1369C21.4737 24.8157 23.0205 24.5531 24.6323 24.3541C24.0984 25.1781 23.5777 26.0236 23.0738 26.8881V26.8882ZM24.6787 39.7289C23.0134 39.5451 21.4433 39.296 19.9932 38.9837C20.4422 37.5495 20.9952 36.059 21.6411 34.543C22.0962 35.4127 22.5768 36.2817 23.0824 37.1457H23.0825C23.5975 38.0259 24.131 38.8881 24.6787 39.7289ZM32.1342 45.8258C31.1048 44.727 30.0781 43.5115 29.0753 42.204C30.0488 42.2418 31.0412 42.2612 32.0499 42.2612C33.0861 42.2612 34.1105 42.2381 35.1188 42.1937C34.1288 43.5247 33.1292 44.742 32.1342 45.8258ZM42.5005 34.4658C43.18 35.9981 43.7529 37.4808 44.2077 38.8906C42.7336 39.2233 41.1421 39.4913 39.4652 39.6904C39.993 38.8629 40.514 38.0091 41.0259 37.1309C41.5438 36.2424 42.0355 35.3525 42.5005 34.4658ZM39.1446 36.0574C38.3499 37.4207 37.534 38.7222 36.7057 39.9507C35.197 40.0574 33.6384 40.1124 32.0499 40.1124C30.4678 40.1124 28.9288 40.0637 27.4469 39.9686C26.5852 38.724 25.7515 37.4187 24.9619 36.0691H24.962C24.1745 34.7233 23.4496 33.366 22.7928 32.0164C23.4494 30.6637 24.1724 29.3049 24.9554 27.9615L24.9553 27.9617C25.7404 26.6147 26.5667 25.3158 27.4204 24.079C28.9324 23.9659 30.4829 23.9069 32.0498 23.9069H32.0499C33.6239 23.9069 35.1763 23.9663 36.6878 24.0804C37.5285 25.3082 38.3492 26.6029 39.1374 27.9501C39.9346 29.3124 40.6669 30.6621 41.3291 31.9859C40.6689 33.3324 39.9382 34.6957 39.1446 36.0574ZM43.6249 12.062C45.3274 13.0333 45.9894 16.9508 44.9198 22.0877C44.8516 22.4155 44.7747 22.7494 44.6913 23.0877C42.582 22.6062 40.2916 22.2479 37.8936 22.0253C36.4966 20.0571 35.049 18.2678 33.5959 16.7187C33.9866 16.3469 34.3767 15.9923 34.7652 15.6577C38.5185 12.426 42.0266 11.1501 43.6249 12.062ZM36.5891 31.9648C36.5891 29.4842 34.5565 27.4732 32.0492 27.4732C29.542 27.4732 27.5094 29.4842 27.5094 31.9648C27.5094 34.4455 29.542 36.4565 32.0492 36.4565C34.5565 36.4565 36.5891 34.4455 36.5891 31.9648Z" fill="#53C1DE"/>
</svg>
