<svg width="64" height="64" viewBox="0 0 64 64" fill="none" xmlns="http://www.w3.org/2000/svg">
<path d="M38.1312 49.6C37.8569 49.6 37.5952 49.4586 37.4475 49.2138L31.4227 39.1647L20.1665 42.2267C19.8078 42.3238 19.4279 42.1613 19.2549 41.8321L6.09313 17.0766C5.97074 16.8465 5.96863 16.5701 6.08891 16.338C6.20709 16.1058 6.43288 15.9476 6.69034 15.9117L17.8727 14.4071C18.1871 14.3649 18.4994 14.5147 18.6619 14.7869L32.1676 37.3098L47.8532 33.045L42.6134 25.6611C42.4594 25.4459 42.4235 25.1673 42.5185 24.9183C42.6134 24.6693 42.8224 24.4857 43.0798 24.4245L50.4193 22.692C50.719 22.6202 51.0313 22.73 51.2233 22.9684L57.5752 30.8967C57.742 31.1056 57.7947 31.3863 57.7103 31.6416C57.628 31.897 57.4212 32.0932 57.1616 32.1629L50.4721 33.9819L56.3049 42.2035C56.4505 42.4082 56.4906 42.6678 56.4146 42.9063C56.3386 43.1447 56.155 43.3325 55.9187 43.4169L38.3929 49.5536C38.3064 49.5853 38.2177 49.6 38.1312 49.6ZM33.018 38.73L38.4794 47.8358L54.393 42.2626L48.8345 34.4272L33.018 38.73ZM8.03669 17.3382L20.3585 40.5195L30.568 37.7424L17.5646 16.0573L8.03669 17.3382ZM44.5971 25.7033L49.4908 32.5997L55.5726 30.9453L50.2969 24.357L44.5971 25.7033Z" fill="#F0543F"/>
</svg>
