<svg width="64" height="64" viewBox="0 0 64 64" fill="none" xmlns="http://www.w3.org/2000/svg">
<path fill-rule="evenodd" clip-rule="evenodd" d="M31.998 9.64195C37.8298 9.64195 43.1398 11.8768 47.1201 15.5357C45.1692 15.4833 43.2223 16.643 43.1418 19.2986C42.9777 24.6672 49.5613 25.8107 46.0138 36.6093L43.0794 45.5414L35.0874 21.9995C34.9636 21.6351 35.1076 21.4277 35.5555 21.4277H37.815C37.9324 21.4277 38.0284 21.3275 38.0284 21.2047V19.8664C38.0284 19.7436 37.9322 19.6383 37.815 19.6434C33.5362 19.8305 29.2825 19.8318 25.0545 19.6434C24.9367 19.6384 24.8411 19.7441 24.8411 19.8669V21.2051C24.8411 21.3278 24.9371 21.4282 25.0545 21.4282H27.3263C27.8317 21.4282 27.9732 21.5966 28.0923 21.9223L31.3761 30.9028L26.4363 45.8186L18.3166 21.9022C18.2159 21.6022 18.3377 21.4281 18.6266 21.4281H21.2153C21.3327 21.4281 21.4286 21.3278 21.4286 21.205V19.8667C21.4286 19.744 21.3323 19.6376 21.2153 19.6437C18.4993 19.788 15.7729 19.817 13.2333 19.8431C17.2186 13.704 24.1335 9.6415 31.9966 9.6415L31.9966 9.64144L31.998 9.64195ZM51.6602 21.3525C53.3781 24.5176 54.3536 28.1439 54.3536 31.997C54.3536 40.4535 49.6549 47.8138 42.7275 51.613L49.6997 31.8651C50.7799 28.8089 51.7825 24.6785 51.6597 21.3525H51.6597H51.6602ZM39.4825 53.0666C37.142 53.8991 34.6234 54.3531 31.998 54.3531C29.736 54.3531 27.5535 54.0159 25.4959 53.3917L32.383 33.655L39.4824 53.0676L39.4825 53.0666ZM22.4316 52.2069C14.8714 48.6214 9.64188 40.9191 9.64188 31.998C9.64188 28.6909 10.3613 25.5515 11.6507 22.727L22.4321 52.2073L22.4321 52.2073L22.4316 52.2069ZM31.9973 7.54405C45.4997 7.54405 56.4502 18.4946 56.4502 31.997C56.4502 45.4995 45.4997 56.45 31.9973 56.45C18.4948 56.45 7.54429 45.4995 7.54429 31.997C7.54429 18.4946 18.4948 7.54405 31.9973 7.54405ZM31.9973 5.99841C46.3534 5.99841 57.9965 17.6415 57.9965 31.9976C57.9965 46.3537 46.3534 57.9968 31.9973 57.9968C17.6412 57.9968 5.99805 46.3537 5.99805 31.9976C5.99805 17.6415 17.6412 5.99841 31.9973 5.99841Z" fill="#DDDDDD"/>
</svg>
