<svg width="64" height="64" viewBox="0 0 64 64" fill="none" xmlns="http://www.w3.org/2000/svg">
<path d="M54 10H10V54H54V10Z" fill="#F7DF1E"/>
<path d="M39.5565 44.375C40.4428 45.8222 41.5959 46.8858 43.6353 46.8858C45.3485 46.8858 46.4429 46.0296 46.4429 44.8465C46.4429 43.4287 45.3184 42.9265 43.4327 42.1017L42.3991 41.6582C39.4154 40.3871 37.4333 38.7947 37.4333 35.4284C37.4333 32.3274 39.7961 29.9668 43.4886 29.9668C46.1174 29.9668 48.0073 30.8817 49.3692 33.2773L46.1495 35.3446C45.4406 34.0735 44.6759 33.5727 43.4886 33.5727C42.2775 33.5727 41.51 34.341 41.51 35.3446C41.51 36.585 42.2782 37.0871 44.0522 37.8554L45.0859 38.2982C48.5989 39.8046 50.5824 41.3404 50.5824 44.7934C50.5824 48.5159 47.6581 50.5553 43.7309 50.5553C39.8911 50.5553 37.4103 48.7255 36.1965 46.3271L39.5565 44.375ZM24.9506 44.7333C25.6001 45.8857 26.191 46.86 27.6116 46.86C28.97 46.86 29.8269 46.3285 29.8269 44.2619V30.2029H33.9615V44.3178C33.9615 48.599 31.4514 50.5476 27.7876 50.5476C24.4771 50.5476 22.5599 48.8344 21.585 46.771L24.9506 44.7333Z" fill="black"/>
</svg>
