<svg width="64" height="64" viewBox="0 0 64 64" fill="none" xmlns="http://www.w3.org/2000/svg">
<path d="M44.033 38.9246L34.1936 36.1931L32.001 11.5999H56.0946L53.8996 36.1893L44.033 38.9246Z" fill="#0170BA"/>
<path d="M52.0205 34.6235L53.8963 13.6107H44.0479V36.8339L52.0205 34.6235Z" fill="#29A9DF"/>
<path d="M37.0273 22.7318L37.2977 25.748H44.0475V22.7318H37.0273Z" fill="#EBEBEB"/>
<path d="M36.4844 16.627L36.7586 19.6433H44.0477V16.627H44.0373H36.4844Z" fill="#EBEBEB"/>
<path d="M44.0477 30.5655L44.0345 30.569L40.6752 29.662L40.4605 27.2563H38.8281H37.4326L37.8552 31.9923L44.0338 33.7075L44.0477 33.7037V30.5655Z" fill="#EBEBEB"/>
<path d="M51.0484 22.732L51.5929 16.627H44.0371V19.6433H48.2873L48.0129 22.732H44.0371V25.7482H47.7513L47.4012 29.6601L44.0371 30.568V33.7061L50.2206 31.9923L50.266 31.4827L50.9748 23.5419L51.0484 22.732Z" fill="white"/>
<path d="M36.632 21.0751L33.9871 50.7039L22.0985 53.9998L10.2426 50.7086L7.60059 21.0751H36.632Z" fill="#E44D26"/>
<path d="M22.1162 51.4805L31.7228 48.8171L33.983 23.4979H22.1162V51.4805Z" fill="#F16529"/>
<path d="M16.9749 30.7669H22.1163V27.1324H22.1038H13.0029L13.0899 28.1075L13.9832 38.123H22.1163V34.4886H17.307L16.9749 30.7669Z" fill="#EBEBEB"/>
<path d="M17.7949 39.9406H15.828H14.1465L14.6557 45.6471L22.1005 47.7139L22.1172 47.7092V43.9279L22.1013 43.9321L18.0536 42.8392L17.7949 39.9406Z" fill="#EBEBEB"/>
<path d="M22.1045 38.1229H26.5799L26.158 42.8365L22.1045 43.9306V47.7117L29.5553 45.6468L29.6099 45.0327L30.464 35.4645L30.5527 34.4885H29.5733H22.1045V38.1229Z" fill="white"/>
<path d="M22.1045 30.758V30.7669H30.8717H30.8834L30.9563 29.95L31.1219 28.1075L31.2088 27.1324H22.1045V29.3898V30.758Z" fill="white"/>
</svg>
