<svg width="64" height="64" viewBox="0 0 64 64" fill="none" xmlns="http://www.w3.org/2000/svg">
<path d="M25.8005 45.1207C25.8005 45.1207 23.9663 46.1874 27.1059 46.5484C30.9096 46.9823 32.8536 46.9201 37.0452 46.1268C37.0452 46.1268 38.1472 46.8177 39.6863 47.4162C30.2897 51.4434 18.4201 47.183 25.8005 45.1207Z" fill="#5382A1"/>
<path d="M24.6527 39.8657C24.6527 39.8657 22.5954 41.3886 25.7374 41.7136C29.8006 42.1328 33.0094 42.1671 38.5618 41.0979C38.5618 41.0979 39.3298 41.8765 40.5373 42.3022C29.1764 45.6244 16.5223 42.5642 24.6527 39.8657Z" fill="#5382A1"/>
<path d="M34.3336 30.951C36.6489 33.6166 33.7253 36.0154 33.7253 36.0154C33.7253 36.0154 39.6042 32.9805 36.9043 29.1801C34.3826 25.636 32.4488 23.8751 42.9175 17.8036C42.9175 17.8036 26.4852 21.9076 34.3336 30.951Z" fill="#E76F00"/>
<path d="M46.7599 49.008C46.7599 49.008 48.1173 50.1265 45.265 50.9917C39.8412 52.6348 22.6905 53.131 17.9262 51.0572C16.2135 50.3121 19.4252 49.2782 20.4355 49.0612C21.4892 48.8327 22.0913 48.8753 22.0913 48.8753C20.1866 47.5335 9.78029 51.5099 16.8054 52.6487C35.9638 55.7556 51.7294 51.2496 46.7599 49.008Z" fill="#5382A1"/>
<path d="M26.6825 34.4205C26.6825 34.4205 17.9586 36.4926 23.5931 37.2451C25.9722 37.5636 30.7149 37.4915 35.1325 37.1214C38.7429 36.8168 42.3681 36.1693 42.3681 36.1693C42.3681 36.1693 41.095 36.7145 40.174 37.3434C31.315 39.6733 14.2011 38.5894 19.128 36.2062C23.2947 34.1921 26.6825 34.4205 26.6825 34.4205Z" fill="#5382A1"/>
<path d="M42.3333 43.1682C51.3389 38.4886 47.1751 33.9915 44.2688 34.5974C43.5565 34.7456 43.2388 34.8741 43.2388 34.8741C43.2388 34.8741 43.5033 34.4598 44.0084 34.2805C49.7579 32.2592 54.1797 40.2423 42.1523 43.4041C42.1523 43.4042 42.2917 43.2796 42.3333 43.1682Z" fill="#5382A1"/>
<path d="M36.9033 7.99988C36.9033 7.99988 41.8907 12.989 32.1729 20.6608C24.3802 26.815 30.3959 30.3239 32.1697 34.333C27.621 30.2289 24.2828 26.6161 26.5223 23.2536C29.8094 18.3178 38.9156 15.9248 36.9033 7.99988Z" fill="#E76F00"/>
<path d="M27.5664 55.8489C36.2106 56.4022 49.4848 55.5419 49.7992 51.4517C49.7992 51.4517 49.1949 53.0022 42.6552 54.2336C35.2772 55.6221 26.1774 55.46 20.7803 54.5701C20.7804 54.57 21.8851 55.4846 27.5664 55.8489Z" fill="#5382A1"/>
</svg>
