<svg width="64" height="64" viewBox="0 0 64 64" fill="none" xmlns="http://www.w3.org/2000/svg">
<path fill-rule="evenodd" clip-rule="evenodd" d="M37.5065 21.9602C35.4053 15.8955 41.5469 9.39389 46.5992 9.19997C49.6265 10.7793 52.2257 14.9265 52.0958 20.5544C51.6991 27.4881 46.7931 33.4637 41.4544 38.9691C41.1564 32.2559 39.7315 27.9766 37.5065 21.9602Z" fill="#7CC734"/>
<path fill-rule="evenodd" clip-rule="evenodd" d="M25.595 54.7999C24.7499 48.0303 27.4982 42.2554 30.226 38.7341C31.5223 37.0807 32.5184 35.5721 33.2771 34.1827C34.7101 34.8032 38.5621 36.8241 40.6844 40.1052C40.3761 44.8649 36.859 53.5268 25.595 54.7999Z" fill="#3E7FCA"/>
<path fill-rule="evenodd" clip-rule="evenodd" d="M21.3389 29.0884C12.3741 26.581 10.1627 18.7056 10.5628 13.409C19.2683 9.88029 28.6373 13.4948 34.0468 21.0286C37.8395 26.3088 40.2142 33.0785 40.696 38.9867C38.094 35.5525 34.8075 33.5629 30.6214 32.0047C27.7582 30.9398 25.1133 30.2342 21.3389 29.0884Z" fill="#EB6E2E"/>
</svg>
